# xmcd
#
# Track frame offsets:
#	150
#	13291
#	31193
#	53025
#	71062
#	86858
#	105359
#	120908
#	138614
#	154280
#	166510
#	178332
#	194104
#	206614
#	219512
#	230813
#	251230
#	268757
#	282160
#	297430
#
# Disc length: 4192 seconds
#
# Revision: 1
# Processed by: cddbd v1.5.2PL0 Copyright (c) Steve Scherf et al.
# Submitted via: audiograbber 1.83.01
#
DISCID=38105e14
DTITLE=Various Artist - Promo Only Country Radio October 2017
DYEAR=2017
DGENRE=Country
TTITLE0=Luke Bryan - Light It Up
TTITLE1=Rebel Hearts f. Kody and Boyz Nite Out - Baby Doll
TTITLE2=Raven Cliff - VooDoo Whiskey
TTITLE3=Scotty McCreery - Five More Minutes
TTITLE4=Angus Gill - Roadworks
TTITLE5=Crossroad Station - Still Hanging On
TTITLE6=Adam Doleac - Whiskey's Fine
TTITLE7=Rascal Flatts - Back To Us
TTITLE8=Brett Eldredge - The Long Way
TTITLE9=Brad Puckett - Waiting On Thunder
TTITLE10=Thomas Rhett - Unforgettable
TTITLE11=Danielle Bradbery - Sway
TTITLE12=Florida Georgia Line - Smooth
TTITLE13=Frankie Justin - Summer Lover
TTITLE14=Dylan Scott - Hooked
TTITLE15=Justin Standley - Little Ronnie's Ghost
TTITLE16=Chase Rice - Three Chords and The Truth
TTITLE17=Michael Lynne - Break Out The Rowdy
TTITLE18=Fiona Culley - Act Like A Lady
TTITLE19=Zac Brown Band - Roots
EXTD=
EXTT0=
EXTT1=
EXTT2=
EXTT3=
EXTT4=
EXTT5=
EXTT6=
EXTT7=
EXTT8=
EXTT9=
EXTT10=
EXTT11=
EXTT12=
EXTT13=
EXTT14=
EXTT15=
EXTT16=
EXTT17=
EXTT18=
EXTT19=
PLAYORDER=
